<?xml version="1.0" encoding="UTF-8"?>
<!DOCTYPE svg PUBLIC "-//W3C//DTD SVG 1.1//EN" "http://www.w3.org/Graphics/SVG/1.1/DTD/svg11.dtd">
<!-- Creator: CorelDRAW -->
<svg xmlns="http://www.w3.org/2000/svg" xml:space="preserve" width="297mm" height="210mm" version="1.1" style="shape-rendering:geometricPrecision; text-rendering:geometricPrecision; image-rendering:optimizeQuality; fill-rule:evenodd; clip-rule:evenodd"
viewBox="0 0 29700 21000"
 xmlns:xlink="http://www.w3.org/1999/xlink"
 xmlns:xodm="http://www.corel.com/coreldraw/odm/2003">
 <defs>
  <style type="text/css">
   <![CDATA[
    .fil0 {fill:#373435;fill-rule:nonzero}
    .fil2 {fill:#69AF2B;fill-rule:nonzero}
    .fil1 {fill:#FE0000;fill-rule:nonzero}
   ]]>
  </style>
 </defs>
 <g id="Camada_x0020_1">
  <metadata id="CorelCorpID_0Corel-Layer"/>
  <g id="_1385015625536">
   <path class="fil0" d="M4825.34 4319.8c213.31,0 403.81,43.19 571.45,129.54 86.38,44.51 163.3,100.46 230.68,167.85 66.57,66.57 124.39,145.06 173.46,235.43 48.96,90.18 85.41,191.73 109.31,304.58 23.53,111.05 35.3,232.87 35.3,365.44l0 1414.31c0,60.74 -49.24,109.98 -109.98,109.98l-716.34 0c-60.73,0 -109.98,-49.24 -109.98,-109.98l0 -1304.1c0,-171.58 -32.31,-294.48 -96.91,-368.65 -29.93,-34.37 -65.8,-60.09 -107.57,-77.12 -44.81,-18.27 -97.65,-27.42 -158.5,-27.42 -43.02,0 -83.39,4.78 -121.03,14.36 -37.05,9.4 -71.9,23.49 -104.52,42.21 -31.82,18.27 -59.71,40.64 -83.57,67.06 -24.76,27.43 -46.46,60.36 -65.04,98.77 -18.77,38.8 -33,83.61 -42.63,134.37 -10.05,52.92 -15.07,113.17 -15.07,180.7l0 1239.82c0,60.74 -49.25,109.98 -109.98,109.98l-716.34 0c-60.74,0 -109.98,-49.24 -109.98,-109.98l0 -1304.1c0,-172.22 -31.7,-295.4 -95.05,-369.51 -29.18,-34.13 -64.47,-59.71 -105.85,-76.69 -43.81,-17.99 -96.33,-26.99 -157.5,-26.99 -43.01,0 -83.38,4.78 -121.03,14.36 -37.05,9.4 -71.9,23.49 -104.52,42.21 -31.82,18.27 -59.7,40.64 -83.56,67.06 -24.76,27.43 -46.47,60.36 -65.05,98.77 -18.77,38.8 -32.99,83.61 -42.63,134.37 -10.05,52.92 -15.07,113.17 -15.07,180.7l0 1239.82c0,60.74 -49.24,109.98 -109.98,109.98l-716.34 0c-60.74,0 -109.98,-49.24 -109.98,-109.98l0 -2470.44c0,-60.74 49.24,-109.98 109.98,-109.98l684.19 0c60.74,0 109.98,49.24 109.98,109.98l0 43.21c23.7,-15.87 48.25,-30.82 73.66,-44.88 87.76,-48.56 181.17,-84.88 280.2,-108.89 99.37,-24.1 203.45,-36.15 312.2,-36.15 122.73,0 239.09,15.93 349.07,47.77 110.71,32.05 213.06,79.84 307.01,143.32 62.4,42.15 118.05,91.45 166.96,147.88 58.38,-56.7 123.64,-107.48 195.76,-152.33 100.28,-62.36 207.95,-109.15 322.95,-140.31 113.95,-30.88 234.59,-46.33 361.84,-46.33zm4458.97 2617.15l0 -3407.19c0,-60.74 49.25,-109.98 109.98,-109.98l716.34 0c60.74,0 109.98,49.24 109.98,109.98l0 3407.19c0,60.74 -49.24,109.98 -109.98,109.98l-716.34 0c-60.73,0 -109.98,-49.24 -109.98,-109.98zm-1561.47 146.72c-147.58,0 -287.66,-14.79 -420.26,-44.34 -133.4,-29.73 -257.28,-74.21 -371.6,-133.43 -114.56,-59.34 -216.78,-130.18 -306.6,-212.48 -89.99,-82.47 -166.82,-176.04 -230.43,-280.64 -63.84,-105.01 -111.62,-216.98 -143.32,-335.86 -31.65,-118.7 -47.49,-243.78 -47.49,-375.19 0,-132.46 15.65,-258.54 46.92,-378.2 31.38,-120.11 78.44,-232.47 141.18,-337.02 62.6,-104.33 136.69,-197.4 222.23,-279.19 85.09,-81.36 181.81,-151.62 290.11,-210.77 107.95,-58.96 222.83,-103.16 344.62,-132.57 121.98,-29.45 249.59,-44.18 382.8,-44.18 129,0 252.3,13.83 369.89,41.45 118.04,27.75 229.92,69.51 335.59,125.26 106.18,56.02 201.42,124.28 285.64,204.74 84.45,80.65 157.54,173.11 219.23,277.32 61.99,104.73 108.49,219.66 139.44,344.77 30.61,123.67 45.92,256.21 45.92,397.57 0,30.55 -1.68,65.09 -5.02,103.59 -2.2,25.3 0.5,-7.89 -5.03,51.51l-4.58 48.51c-5.58,56.65 -53.35,98.96 -109.12,98.9l0 0.33 -1711.94 0c2.95,5.53 6,11 9.15,16.41 24.26,41.68 53.51,78.4 87.72,110.11 34.21,31.72 73.71,58.64 118.44,80.69 46.04,22.69 96.43,39.78 151.14,51.25 55.71,11.66 116.96,17.5 183.73,17.5 60.14,0 115.8,-4.4 166.93,-13.2 50.49,-8.69 96.83,-21.47 138.95,-38.32 42.46,-16.98 83.67,-38.57 123.59,-64.74 40.28,-26.39 78.43,-56.93 114.4,-91.57 43.65,-42 113.09,-40.65 155.09,3l382.85 414.99c38.4,41.73 38.33,105.23 1.62,146.85l0.1 0.08c-62.09,70.47 -132.73,133.17 -211.91,188.09 -77.96,54.06 -163.57,99.83 -256.81,137.29 -93.19,37.44 -192.87,65.43 -299,83.94 -105.27,18.35 -216.68,27.55 -334.17,27.55zm-554.62 -1707.74l931.38 0c-6.82,-16.76 -14.49,-32.9 -22.99,-48.41 -21.44,-39.07 -46.57,-73.51 -75.38,-103.23 -28.99,-29.92 -62.07,-55.72 -99.19,-77.37 -36.9,-21.52 -77.21,-37.77 -120.88,-48.68 -44.38,-11.09 -92.92,-16.64 -145.57,-16.64 -52.99,0 -101.85,5.55 -146.56,16.64 -43.49,10.8 -84.38,27.17 -122.61,49.11 -38.06,21.83 -71.57,47.69 -100.49,77.52 -29.1,30.01 -54.29,64.71 -75.53,104.09 -8.17,15.14 -15.56,30.8 -22.18,46.97z"/>
   <path class="fil1" d="M11458.5 4389.27c31.53,-9.58 63.54,-18.15 96.04,-25.72 125.32,-29.16 257.81,-43.75 397.44,-43.75 138.12,0 269.65,14.59 394.56,43.75 125.33,29.27 243.53,73.33 354.53,132.14 111.23,58.93 210.56,129.01 298,210.19 87.6,81.34 163.17,173.85 226.69,277.47 63.72,103.97 111.51,216.28 143.33,336.88 31.64,119.95 47.48,247.14 47.48,381.5 0,131.41 -15.84,256.49 -47.48,375.19 -31.71,118.89 -79.5,230.86 -143.33,335.86 -52.44,86.23 -112.82,164.69 -181.13,235.33l-581.33 -827.88c5.19,-37.02 7.78,-76.54 7.78,-118.5 0,-64.82 -5.89,-123.4 -17.64,-175.7 -11.56,-51.36 -28.66,-97.8 -51.26,-139.24 -22.72,-41.65 -49.53,-78.57 -80.39,-110.69 -30.35,-31.58 -64.81,-58.59 -103.37,-80.97 -39.21,-22.76 -80.43,-39.71 -123.6,-50.81 -36.37,-9.35 -75.58,-14.81 -117.61,-16.35l-518.71 -738.7z"/>
   <path class="fil2" d="M11951.98 7083.67c-139.76,0 -272.25,-14.79 -397.44,-44.34 -126.18,-29.78 -244.48,-74.56 -354.81,-134.29 -110.21,-59.66 -209.02,-130.5 -296.42,-212.48 -87.13,-81.73 -162.79,-174.72 -226.98,-278.92 -64.86,-105.29 -113.36,-217.4 -145.48,-336.29 -32.03,-118.58 -48.06,-243.8 -48.06,-375.62 0,-133.28 16.03,-259.66 48.06,-379.07 32.09,-119.59 80.59,-232.09 145.48,-337.44 51.41,-83.45 110.21,-159.62 176.39,-228.48l582.84 830.06c-4.85,35.97 -7.29,74.28 -7.29,114.93 0,62.4 6.09,119.74 18.23,171.96 11.88,51.05 29.55,97.82 52.99,140.26 23.71,42.93 51.09,80.55 82.1,112.83 30.72,31.96 65.38,59.16 103.95,81.55 39.21,22.76 80.42,39.72 123.6,50.81 34.1,8.77 70.7,14.11 109.78,16.01l519.21 739.45c-30.09,9.15 -60.62,17.39 -91.59,24.73 -124.78,29.55 -256.32,44.34 -394.56,44.34z"/>
   <path class="fil0" d="M15285.7 4319.8c212.98,0 404.71,43.04 575.18,129.11 87.39,44.13 165.63,100.08 234.7,167.85 68.61,67.31 127.68,145.8 177.19,235.43 49.5,89.62 86.52,191.3 111.04,305.01 23.91,110.91 35.87,232.74 35.87,365.44l0 1414.31c0,60.74 -49.25,109.98 -109.98,109.98l-716.34 0c-60.74,0 -109.98,-49.24 -109.98,-109.98l0 -1304.1c0,-170.62 -33.9,-292.8 -101.66,-366.5 -32.35,-35.19 -71.08,-61.48 -116.16,-78.84l-0.37 -0.15 -0.07 0.15c-48.21,-18.56 -105.65,-27.85 -172.28,-27.85 -48.63,0 -94.09,4.93 -136.37,14.79 -42.01,9.78 -81.31,24.29 -117.86,43.5 -34.94,18.34 -65.97,41.52 -93.05,69.49 -27.5,28.41 -51.45,62.35 -71.79,101.79 -20.78,40.3 -36.43,86.59 -46.93,138.82 -10.91,54.21 -16.37,116.72 -16.37,187.45l0 1221.45c0,60.74 -49.24,109.98 -109.98,109.98l-716.34 0c-60.74,0 -109.98,-49.24 -109.98,-109.98l0 -2470.44c0,-60.74 49.24,-109.98 109.98,-109.98l684.19 0c60.74,0 109.98,49.24 109.98,109.98l0 54.1c28.95,-19.33 59.14,-37.44 90.6,-54.33 181.83,-97.65 387.44,-146.48 616.78,-146.48zm1391.58 2617.15l0 -431.64c0,-29.64 11.73,-56.55 30.81,-76.33l1100.71 -1301.46 -989.4 0c-60.74,0 -109.98,-49.25 -109.98,-109.98l0 -551.03c0,-60.74 49.24,-109.98 109.98,-109.98l2130.64 0c60.73,0 109.98,49.24 109.98,109.98l0 431.64c0,29.64 -11.74,56.55 -30.81,76.33l-1100.71 1301.47 1062.87 0c60.74,0 109.98,49.24 109.98,109.98l0 551.02c0,60.74 -49.24,109.98 -109.98,109.98l-2204.11 0c-60.74,0 -109.98,-49.24 -109.98,-109.98z"/>
   <path class="fil0" d="M23927.67 4319.8c212.97,0 404.71,43.04 575.17,129.11 87.39,44.13 165.63,100.08 234.7,167.85 68.61,67.31 127.68,145.8 177.19,235.43 49.5,89.62 86.53,191.3 111.04,305.01 23.91,110.91 35.87,232.74 35.87,365.44l0 1414.31c0,60.74 -49.24,109.98 -109.98,109.98l-716.34 0c-60.74,0 -109.98,-49.24 -109.98,-109.98l0 -1304.1c0,-170.62 -33.9,-292.8 -101.66,-366.5 -32.35,-35.19 -71.08,-61.48 -116.16,-78.84l-0.37 -0.15 -0.06 0.15c-48.22,-18.56 -105.65,-27.85 -172.28,-27.85 -48.63,0 -94.09,4.93 -136.38,14.79 -42.01,9.78 -81.31,24.29 -117.85,43.5 -34.94,18.35 -65.97,41.52 -93.05,69.49 -27.51,28.41 -51.46,62.36 -71.79,101.79 -20.78,40.31 -36.44,86.6 -46.94,138.82 -10.9,54.2 -16.37,116.71 -16.37,187.45l0 1221.45c0,60.74 -49.24,109.98 -109.98,109.98l-716.34 0c-60.73,0 -109.98,-49.24 -109.98,-109.98l0 -2470.44c0,-60.74 49.25,-109.98 109.98,-109.98l684.19 0c60.74,0 109.98,49.24 109.98,109.98l0 54.11c28.95,-19.33 59.15,-37.45 90.6,-54.34 181.84,-97.65 387.44,-146.48 616.79,-146.48zm2915.86 2763.87c-147.58,0 -287.67,-14.79 -420.26,-44.34 -133.4,-29.73 -257.28,-74.21 -371.6,-133.43 -114.56,-59.34 -216.78,-130.18 -306.6,-212.48 -90,-82.47 -166.82,-176.03 -230.43,-280.64 -63.83,-105 -111.61,-216.97 -143.32,-335.86 -31.65,-118.7 -47.49,-243.78 -47.49,-375.19 0,-132.46 15.65,-258.54 46.92,-378.2 31.38,-120.11 78.44,-232.47 141.18,-337.02 62.6,-104.33 136.69,-197.41 222.23,-279.19 85.08,-81.36 181.81,-151.62 290.11,-210.77 107.95,-58.96 222.83,-103.16 344.62,-132.57 122,-29.45 249.62,-44.18 382.8,-44.18 129,0 252.3,13.83 369.89,41.45 118.04,27.75 229.92,69.51 335.58,125.26 106.19,56.02 201.43,124.28 285.65,204.74 84.45,80.65 157.54,173.11 219.23,277.32 62,104.74 108.49,219.67 139.44,344.77 30.61,123.67 45.92,256.21 45.92,397.57 0,30.55 -1.68,65.09 -5.02,103.59 -2.69,30.9 0.72,-10.56 -5.02,51.51l-4.59 48.51c-5.58,56.65 -53.35,98.96 -109.12,98.9l0 0.33 -1711.94 0c2.96,5.53 6,11 9.15,16.41 24.26,41.67 53.5,78.39 87.72,110.11 34.21,31.72 73.71,58.64 118.44,80.69 46.03,22.69 96.43,39.78 151.14,51.25 55.7,11.66 116.95,17.5 183.73,17.5 60.14,0 115.8,-4.4 166.92,-13.2 50.51,-8.69 96.84,-21.47 138.96,-38.32 42.46,-16.98 83.67,-38.57 123.59,-64.74 40.28,-26.39 78.43,-56.93 114.4,-91.57 43.64,-42 113.09,-40.65 155.09,3l382.85 414.99c38.4,41.73 38.33,105.23 1.62,146.85l0.09 0.08c-62.08,70.47 -132.72,133.17 -211.9,188.09 -77.96,54.06 -163.57,99.83 -256.81,137.29 -93.2,37.44 -192.87,65.43 -299,83.94 -105.27,18.35 -216.68,27.55 -334.17,27.55zm-554.62 -1707.74l931.38 0c-6.82,-16.76 -14.5,-32.9 -22.99,-48.41 -21.44,-39.08 -46.57,-73.51 -75.38,-103.23 -28.99,-29.92 -62.07,-55.72 -99.19,-77.37 -36.9,-21.52 -77.21,-37.77 -120.88,-48.68 -44.38,-11.09 -92.93,-16.64 -145.57,-16.64 -52.99,0 -101.86,5.55 -146.56,16.64 -43.49,10.8 -84.39,27.17 -122.61,49.11 -38.06,21.83 -71.57,47.69 -100.49,77.52 -29.1,30.01 -54.29,64.71 -75.53,104.09 -8.17,15.14 -15.56,30.8 -22.18,46.97z"/>
   <path class="fil1" d="M20100.46 4389.27c31.53,-9.58 63.55,-18.15 96.04,-25.72 125.32,-29.16 257.81,-43.75 397.44,-43.75 138.12,0 269.65,14.59 394.57,43.75 125.32,29.27 243.52,73.33 354.53,132.14 111.22,58.93 210.55,129.01 297.99,210.19 87.6,81.34 163.18,173.85 226.69,277.47 63.72,103.97 111.51,216.28 143.33,336.88 31.65,119.95 47.48,247.14 47.48,381.5 0,131.41 -15.83,256.49 -47.48,375.19 -31.71,118.89 -79.5,230.86 -143.33,335.86 -52.44,86.23 -112.82,164.69 -181.13,235.33l-581.33 -827.88c5.19,-37.02 7.79,-76.54 7.79,-118.5 0,-64.82 -5.9,-123.4 -17.65,-175.7 -11.55,-51.36 -28.66,-97.8 -51.26,-139.24 -22.72,-41.65 -49.53,-78.57 -80.38,-110.69 -30.36,-31.58 -64.82,-58.59 -103.38,-80.97 -39.21,-22.76 -80.42,-39.71 -123.6,-50.81 -36.37,-9.35 -75.58,-14.81 -117.61,-16.35l-518.71 -738.7z"/>
   <path class="fil2" d="M20593.94 7083.67c-139.75,0 -272.25,-14.79 -397.44,-44.34 -126.18,-29.78 -244.47,-74.56 -354.81,-134.29 -110.2,-59.66 -209.02,-130.5 -296.41,-212.48 -87.13,-81.73 -162.8,-174.72 -226.98,-278.92 -64.87,-105.29 -113.36,-217.4 -145.49,-336.29 -32.03,-118.58 -48.05,-243.8 -48.05,-375.62 0,-133.28 16.02,-259.66 48.05,-379.07 32.09,-119.59 80.59,-232.09 145.49,-337.44 51.4,-83.45 110.2,-159.62 176.39,-228.48l582.84 830.06c-4.86,35.97 -7.3,74.28 -7.3,114.93 0,62.4 6.09,119.74 18.23,171.96 11.88,51.05 29.55,97.82 52.99,140.26 23.71,42.93 51.09,80.55 82.1,112.83 30.72,31.96 65.39,59.16 103.95,81.55 39.21,22.76 80.43,39.72 123.6,50.81 34.1,8.77 70.7,14.11 109.79,16.01l519.21 739.45c-30.09,9.15 -60.62,17.39 -91.59,24.73 -124.79,29.55 -256.33,44.34 -394.57,44.34z"/>
  </g>
 </g>
</svg>
